<svg id="svg" xmlns="http://www.w3.org/2000/svg" xmlns:xlink="http://www.w3.org/1999/xlink" width="400" height="142.2470767666497" viewBox="0, 0, 400,142.2470767666497"><g id="svgg"><path id="path0" d="M10.100 7.255 L 9.167 8.181 9.167 57.932 L 9.167 107.683 10.162 108.675 L 11.156 109.667 16.703 109.666 L 22.250 109.666 23.292 108.600 L 24.333 107.534 24.336 74.809 L 24.339 42.083 26.143 45.667 C 27.135 47.637,30.522 54.350,33.670 60.583 C 36.818 66.817,40.867 74.842,42.668 78.417 L 45.943 84.917 52.096 84.917 L 58.248 84.917 61.221 79.000 C 62.857 75.746,67.695 66.108,71.972 57.583 L 79.750 42.083 79.833 74.833 L 79.917 107.583 80.970 108.625 L 82.024 109.667 87.559 109.667 L 93.093 109.667 94.130 108.621 L 95.167 107.574 95.167 57.938 L 95.167 8.302 94.221 7.318 L 93.276 6.333 87.568 6.333 L 81.859 6.333 81.373 7.292 C 81.106 7.819,79.009 11.962,76.713 16.500 C 74.417 21.038,71.170 27.450,69.498 30.750 C 67.826 34.050,64.996 39.637,63.208 43.167 C 61.420 46.696,58.234 52.996,56.129 57.167 C 54.024 61.337,52.246 64.809,52.178 64.881 C 52.111 64.953,51.378 63.678,50.550 62.047 C 49.722 60.417,48.013 57.058,46.752 54.583 C 39.942 41.213,38.487 38.351,37.265 35.917 C 36.528 34.450,35.886 33.212,35.838 33.167 C 35.790 33.121,34.392 30.383,32.731 27.083 C 31.071 23.783,28.374 18.458,26.739 15.250 C 25.103 12.042,23.424 8.742,23.007 7.917 L 22.250 6.417 16.642 6.373 L 11.034 6.329 10.100 7.255 M306.370 7.379 L 305.333 8.426 305.333 23.629 C 305.333 31.992,305.276 38.833,305.207 38.833 C 305.137 38.833,304.893 38.663,304.665 38.455 C 298.934 33.224,286.388 31.778,278.391 35.427 C 278.103 35.559,277.823 35.667,277.771 35.667 C 276.220 35.667,269.890 40.338,267.834 43.000 C 267.515 43.413,267.179 43.841,267.086 43.953 C 266.993 44.064,266.824 44.266,266.710 44.402 C 264.990 46.458,262.559 52.160,261.837 55.833 C 260.288 63.710,260.486 84.465,262.156 89.333 C 262.235 89.563,262.426 90.200,262.582 90.750 C 263.725 94.799,265.831 98.649,268.500 101.567 C 269.360 102.507,269.704 102.844,271.167 104.178 C 272.711 105.587,277.794 108.500,278.708 108.500 C 278.832 108.500,279.005 108.563,279.092 108.641 C 279.179 108.718,279.700 108.911,280.250 109.071 C 280.800 109.230,281.438 109.424,281.667 109.502 C 284.427 110.445,291.769 110.667,295.051 109.907 C 298.126 109.194,301.603 107.644,303.836 105.988 C 305.466 104.779,305.333 104.759,305.333 106.213 L 305.333 107.426 306.463 108.546 L 307.592 109.667 312.769 109.667 L 317.947 109.667 318.973 108.640 L 320.000 107.613 320.000 57.926 L 320.000 8.240 319.037 7.286 L 318.074 6.333 312.740 6.333 L 307.407 6.333 306.370 7.379 M138.583 33.658 C 131.340 34.737,126.040 37.253,121.569 41.733 C 119.971 43.333,117.667 46.235,117.667 46.646 C 117.667 46.734,117.610 46.831,117.542 46.861 C 117.420 46.915,117.220 47.264,116.407 48.833 C 114.678 52.172,113.763 55.622,113.138 61.167 C 112.868 63.556,112.871 80.279,113.141 82.667 C 113.445 85.353,113.638 86.634,113.931 87.912 C 114.212 89.142,114.974 91.740,115.178 92.167 C 115.244 92.304,115.572 93.054,115.906 93.833 C 117.472 97.483,120.759 101.832,123.468 103.841 C 123.771 104.066,124.221 104.419,124.468 104.625 C 124.715 104.831,124.968 105.000,125.030 105.000 C 125.092 105.000,125.242 105.097,125.363 105.215 C 126.017 105.855,129.221 107.562,131.083 108.262 C 133.300 109.096,133.844 109.248,137.333 110.009 C 139.494 110.480,146.737 110.473,149.139 109.997 C 151.387 109.552,153.461 108.999,154.417 108.590 C 154.692 108.472,155.292 108.239,155.750 108.071 C 156.817 107.682,159.233 106.480,159.306 106.302 C 159.336 106.228,159.456 106.167,159.572 106.167 C 160.200 106.167,164.629 102.514,166.008 100.859 C 166.416 100.369,166.920 99.769,167.128 99.526 C 170.519 95.555,172.814 88.922,173.338 81.583 C 173.770 75.518,173.592 60.157,173.080 59.328 C 173.038 59.260,172.927 58.653,172.833 57.978 C 171.920 51.421,168.932 45.569,164.263 41.187 C 163.044 40.042,162.952 39.961,162.239 39.402 C 160.775 38.254,156.164 35.667,155.580 35.667 C 155.518 35.667,155.231 35.563,154.942 35.436 C 150.963 33.690,143.679 32.898,138.583 33.658 M212.583 33.667 C 209.103 34.170,208.168 34.402,205.333 35.462 C 203.157 36.277,199.138 38.451,198.500 39.159 C 198.454 39.210,198.117 39.471,197.750 39.739 C 196.980 40.303,194.115 43.161,193.500 43.980 C 193.271 44.285,193.008 44.621,192.917 44.726 C 192.107 45.653,189.667 49.890,189.667 50.368 C 189.667 50.442,189.526 50.822,189.354 51.210 C 188.428 53.300,187.613 56.747,187.157 60.500 C 186.646 64.710,186.827 81.932,187.418 85.250 C 187.889 87.890,188.422 90.225,188.657 90.672 C 188.731 90.813,188.848 91.188,188.917 91.505 C 189.223 92.905,192.008 98.233,192.835 99.000 C 192.884 99.046,193.311 99.571,193.783 100.167 C 199.398 107.250,208.766 110.930,219.644 110.324 C 222.829 110.147,226.761 109.376,228.206 108.646 C 228.365 108.566,228.579 108.500,228.681 108.500 C 229.109 108.500,232.269 106.960,233.861 105.975 C 240.375 101.947,244.711 95.730,246.397 88.000 C 247.356 83.605,247.500 81.504,247.500 71.917 C 247.500 61.478,247.240 58.550,245.897 53.833 C 244.268 48.116,240.833 42.960,236.417 39.603 C 235.867 39.185,235.342 38.780,235.250 38.704 C 234.720 38.262,231.708 36.594,230.500 36.073 C 228.446 35.187,228.230 35.107,226.333 34.532 C 222.723 33.438,216.759 33.063,212.583 33.667 M333.284 34.958 C 331.728 37.091,331.754 36.998,332.329 38.417 C 332.404 38.600,332.591 39.125,332.745 39.583 C 332.900 40.042,333.092 40.567,333.172 40.750 C 333.252 40.933,333.390 41.346,333.479 41.667 C 333.568 41.987,333.867 42.887,334.144 43.667 C 335.121 46.414,336.519 50.428,336.843 51.417 C 337.024 51.967,337.236 52.532,337.315 52.672 C 337.393 52.813,337.514 53.185,337.583 53.500 C 337.652 53.815,337.771 54.187,337.848 54.328 C 337.924 54.468,338.172 55.146,338.400 55.833 C 338.627 56.521,339.221 58.246,339.720 59.667 C 340.218 61.087,340.790 62.737,340.989 63.333 C 341.188 63.929,341.413 64.532,341.488 64.672 C 341.563 64.813,341.681 65.185,341.750 65.500 C 341.819 65.815,341.938 66.187,342.014 66.328 C 342.091 66.468,342.339 67.146,342.566 67.833 C 342.793 68.521,343.388 70.246,343.886 71.667 C 344.385 73.087,344.956 74.737,345.155 75.333 C 345.355 75.929,345.579 76.532,345.654 76.672 C 345.729 76.813,345.848 77.185,345.917 77.500 C 345.986 77.815,346.105 78.187,346.181 78.328 C 346.257 78.468,346.505 79.146,346.732 79.833 C 347.092 80.921,347.906 83.272,349.851 88.833 C 350.123 89.612,350.494 90.700,350.676 91.250 C 350.857 91.800,351.069 92.365,351.148 92.505 C 351.227 92.646,351.348 93.019,351.417 93.333 C 351.486 93.648,351.605 94.021,351.681 94.161 C 351.756 94.302,352.120 95.317,352.488 96.417 C 353.120 98.307,353.991 100.796,354.936 103.417 C 355.167 104.058,355.430 104.846,355.519 105.167 C 355.609 105.487,355.746 105.900,355.824 106.083 C 355.901 106.267,356.084 106.754,356.230 107.167 L 356.494 107.917 355.738 110.083 C 354.540 113.518,353.535 116.429,352.833 118.500 C 352.476 119.554,351.764 121.617,351.250 123.083 C 350.737 124.550,350.023 126.612,349.665 127.667 C 349.306 128.721,348.673 130.582,348.257 131.803 C 347.506 134.006,347.470 134.406,347.983 134.833 C 348.038 134.879,348.342 135.292,348.658 135.750 C 348.974 136.208,349.312 136.638,349.408 136.706 C 349.504 136.773,352.358 136.829,355.750 136.829 L 361.917 136.831 363.910 130.790 C 365.007 127.468,365.957 124.638,366.022 124.500 C 366.087 124.362,366.359 123.575,366.627 122.750 C 368.216 117.856,378.361 87.540,378.480 87.328 C 378.560 87.187,378.681 86.815,378.750 86.500 C 378.819 86.185,378.934 85.813,379.006 85.672 C 379.145 85.401,380.073 82.641,380.774 80.417 C 381.005 79.683,381.255 78.933,381.329 78.750 C 381.479 78.381,381.843 77.288,382.855 74.167 C 383.226 73.021,383.595 71.933,383.675 71.750 C 383.754 71.567,384.167 70.329,384.593 69.000 C 385.018 67.671,385.431 66.433,385.509 66.250 C 385.588 66.067,386.113 64.492,386.676 62.750 C 387.239 61.008,387.764 59.433,387.843 59.250 C 387.922 59.067,388.334 57.829,388.759 56.500 C 389.185 55.171,389.599 53.933,389.681 53.750 C 389.762 53.567,390.884 50.229,392.173 46.333 C 393.462 42.438,394.581 39.100,394.660 38.917 C 394.739 38.733,394.916 38.214,395.055 37.763 C 395.336 36.845,395.449 37.114,393.913 35.042 L 393.265 34.167 387.153 34.167 L 381.040 34.167 380.866 34.625 C 380.770 34.877,380.531 35.646,380.334 36.333 C 380.137 37.021,379.914 37.733,379.838 37.917 C 379.761 38.100,379.459 39.037,379.166 40.000 C 378.873 40.962,378.573 41.938,378.499 42.167 C 378.425 42.396,378.197 43.146,377.994 43.833 C 377.791 44.521,377.563 45.233,377.488 45.417 C 377.413 45.600,377.114 46.538,376.825 47.500 C 376.536 48.462,376.129 49.775,375.922 50.417 C 375.714 51.058,375.312 52.333,375.027 53.250 C 373.804 57.187,373.454 58.302,373.168 59.167 C 373.001 59.671,372.702 60.646,372.504 61.333 C 372.305 62.021,372.083 62.733,372.009 62.917 C 371.936 63.100,371.643 64.000,371.359 64.917 C 370.146 68.825,369.787 69.968,369.501 70.833 C 369.334 71.337,369.034 72.313,368.833 73.000 C 368.633 73.688,368.297 74.775,368.088 75.417 C 367.879 76.058,367.393 77.596,367.008 78.833 C 366.623 80.071,366.012 82.021,365.650 83.167 C 365.079 84.974,364.442 87.052,364.223 87.820 C 364.131 88.142,363.944 87.884,363.690 87.083 C 363.573 86.717,363.415 86.267,363.338 86.083 C 363.261 85.900,362.730 84.287,362.158 82.500 C 360.375 76.931,358.807 72.098,358.668 71.750 C 358.595 71.567,358.067 69.954,357.494 68.167 C 355.819 62.941,355.653 62.434,355.505 62.083 C 355.427 61.900,355.088 60.850,354.752 59.750 C 354.415 58.650,354.080 57.600,354.007 57.417 C 353.933 57.233,353.405 55.621,352.833 53.833 C 352.261 52.046,351.659 50.208,351.495 49.750 C 351.331 49.292,350.734 47.454,350.167 45.667 C 349.601 43.879,349.076 42.267,349.001 42.083 C 348.926 41.900,348.314 40.044,347.641 37.960 L 346.417 34.169 340.139 34.168 L 333.862 34.167 333.284 34.958 M145.960 47.593 C 149.509 48.160,152.155 49.427,154.250 51.564 C 158.155 55.545,158.899 58.805,158.899 71.917 C 158.899 84.938,158.119 88.390,154.312 92.203 C 153.351 93.165,151.090 94.833,150.746 94.833 C 150.684 94.833,150.397 94.937,150.109 95.063 C 147.834 96.058,146.696 96.250,143.083 96.250 C 139.887 96.250,139.688 96.230,138.250 95.777 C 136.743 95.302,134.631 94.367,134.528 94.128 C 134.497 94.058,134.396 94.000,134.302 94.000 C 133.918 94.000,130.837 91.160,130.834 90.804 C 130.834 90.741,130.716 90.573,130.573 90.430 C 130.260 90.117,129.101 87.922,128.938 87.333 C 127.689 82.831,127.583 81.627,127.583 71.917 C 127.583 62.471,127.735 60.583,128.778 57.000 C 130.698 50.405,138.123 46.340,145.960 47.593 M220.405 47.653 C 221.040 47.756,221.903 47.957,222.322 48.099 C 223.488 48.494,225.240 49.205,225.333 49.320 C 225.379 49.377,225.604 49.508,225.833 49.612 C 226.695 50.002,228.537 51.671,229.389 52.833 C 229.758 53.337,230.105 53.788,230.160 53.833 C 230.418 54.047,231.347 56.226,231.724 57.500 C 232.668 60.686,232.810 62.567,232.810 71.917 C 232.810 85.245,232.055 88.560,228.160 92.333 C 226.560 93.883,225.434 94.581,223.250 95.374 C 221.011 96.187,220.574 96.250,217.167 96.250 C 213.759 96.250,213.323 96.187,211.083 95.374 C 208.611 94.477,206.409 92.903,205.000 91.026 C 204.771 90.721,204.490 90.371,204.375 90.248 C 204.260 90.124,204.167 89.950,204.167 89.859 C 204.167 89.769,204.107 89.669,204.034 89.639 C 203.681 89.492,202.498 86.168,202.176 84.417 C 201.558 81.067,201.474 79.587,201.466 72.000 C 201.457 62.781,201.695 60.307,202.958 56.500 C 203.221 55.704,203.853 54.306,204.011 54.167 C 204.063 54.121,204.357 53.708,204.665 53.250 C 207.623 48.843,213.926 46.602,220.405 47.653 M293.583 47.654 C 295.218 47.918,298.130 48.979,298.306 49.375 C 298.336 49.444,298.453 49.500,298.565 49.500 C 299.037 49.500,301.644 51.964,302.360 53.087 C 303.382 54.688,304.123 56.647,304.566 58.917 C 304.709 59.650,304.911 60.625,305.015 61.083 C 305.291 62.302,305.422 78.246,305.176 80.691 C 304.296 89.443,301.703 93.552,295.750 95.627 C 291.504 97.107,284.786 96.273,281.500 93.858 C 280.146 92.863,278.000 90.402,278.000 89.845 C 278.000 89.747,277.925 89.667,277.833 89.667 C 277.742 89.667,277.667 89.547,277.667 89.401 C 277.667 89.254,277.559 88.936,277.428 88.692 C 274.932 84.058,274.522 63.609,276.789 56.833 C 279.183 49.682,285.331 46.322,293.583 47.654 " stroke="none" fill="#fcfcfc" fill-rule="evenodd"></path><path id="path1" d="M9.667 124.583 L 9.667 131.167 176.799 131.167 L 343.932 131.167 344.630 129.125 C 345.731 125.908,347.409 121.037,347.892 119.654 C 348.135 118.960,348.333 118.303,348.333 118.196 C 348.333 118.046,308.576 118.000,179.000 118.000 L 9.667 118.000 9.667 124.583 M372.179 119.708 C 371.881 120.648,371.570 121.567,371.489 121.750 C 371.337 122.092,368.956 129.187,368.566 130.458 L 368.349 131.167 381.758 131.167 L 395.167 131.167 395.167 124.583 L 395.167 118.000 383.944 118.000 L 372.721 118.000 372.179 119.708 " stroke="none" fill="#045c24" fill-rule="evenodd"></path></g></svg>